<svg width="64" height="64" viewBox="0 0 64 64" fill="none" xmlns="http://www.w3.org/2000/svg">
<rect opacity="0.19" width="64" height="64" rx="25" fill="#0057FF"/>
<path d="M32.4253 35.1903C32.4253 33.034 31.3997 31.4396 29.2802 30.8427C30.8256 30.1059 31.6324 28.991 31.6324 27.2565C31.6324 23.8349 29.0754 23 26.1245 23H18V40.1766H26.352C29.4849 40.1766 32.4253 38.6785 32.4253 35.1903ZM21.7875 25.9316H25.3422C26.7073 25.9316 27.9377 26.3149 27.9377 27.8936C27.9377 29.3533 26.9804 29.9396 25.6274 29.9396H21.7875V25.9316ZM21.7875 37.259V32.5282H25.9145C27.5824 32.5282 28.6378 33.2213 28.6378 34.9802C28.6378 36.7147 27.3794 37.2573 25.8375 37.2573H21.7875V37.259Z" fill="#0057FF"/>
<path d="M39.9321 40.5022C42.9127 40.5022 44.8415 39.1651 45.7708 36.3192H42.7465C42.4209 37.3816 41.0785 37.9417 40.0389 37.9417C38.0314 37.9417 36.976 36.769 36.976 34.7773H45.9756C46.2609 30.7885 44.0381 27.3914 39.9321 27.3914C36.1306 27.3914 33.5491 30.2407 33.5491 33.9739C33.5473 37.8454 35.9941 40.5022 39.9321 40.5022ZM39.8254 29.9694C41.5458 29.9694 42.4122 30.9776 42.5574 32.6263H36.9813C37.0933 30.9933 38.1819 29.9694 39.8254 29.9694Z" fill="#0057FF"/>
<path d="M36.281 23.9014H43.2679V25.5938H36.281V23.9014Z" fill="#0057FF"/>
</svg>
