<svg width="64" height="64" viewBox="0 0 64 64" fill="none" xmlns="http://www.w3.org/2000/svg">
<path d="M52 64H12C5.372 64 0 58.628 0 52V12C0 5.372 5.372 0 12 0H52C58.628 0 64 5.372 64 12V52C64 58.628 58.628 64 52 64Z" fill="#FFF9DD"/>
<path d="M32 20.608C31.448 20.608 31 20.16 31 19.608V17C31 16.448 31.448 16 32 16C32.552 16 33 16.448 33 17V19.608C33 20.16 32.552 20.608 32 20.608Z" fill="#FFE777"/>
<path d="M40.762 24.2381C40.506 24.2381 40.25 24.1401 40.054 23.9461C39.664 23.5561 39.664 22.9221 40.054 22.5321L41.9 20.6861C42.29 20.2961 42.924 20.2961 43.314 20.6861C43.704 21.0761 43.704 21.7101 43.314 22.1001L41.468 23.9461C41.274 24.1401 41.018 24.2381 40.762 24.2381Z" fill="#FFE777"/>
<path d="M47 33H44.392C43.84 33 43.392 32.552 43.392 32C43.392 31.448 43.84 31 44.392 31H47C47.552 31 48 31.448 48 32C48 32.552 47.552 33 47 33Z" fill="#FFE777"/>
<path d="M42.606 43.606C42.35 43.606 42.094 43.508 41.898 43.314L40.052 41.468C39.662 41.078 39.662 40.444 40.052 40.054C40.442 39.664 41.076 39.664 41.466 40.054L43.312 41.9C43.702 42.29 43.702 42.924 43.312 43.314C43.118 43.51 42.862 43.606 42.606 43.606Z" fill="#FFE777"/>
<path d="M21.3941 43.606C21.1381 43.606 20.8821 43.508 20.6861 43.314C20.2961 42.924 20.2961 42.29 20.6861 41.9L22.5321 40.054C22.9221 39.664 23.5561 39.664 23.9461 40.054C24.3361 40.444 24.3361 41.078 23.9461 41.468L22.1001 43.314C21.9041 43.51 21.6501 43.606 21.3941 43.606Z" fill="#FFE777"/>
<path d="M19.608 33H17C16.448 33 16 32.552 16 32C16 31.448 16.448 31 17 31H19.608C20.16 31 20.608 31.448 20.608 32C20.608 32.552 20.16 33 19.608 33Z" fill="#FFE777"/>
<path d="M23.2381 24.2381C22.9821 24.2381 22.7261 24.1401 22.5301 23.9461L20.6841 22.1001C20.2941 21.7101 20.2941 21.0761 20.6841 20.6861C21.0741 20.2961 21.7081 20.2961 22.0981 20.6861L23.9441 22.5321C24.3341 22.9221 24.3341 23.5561 23.9441 23.9461C23.7501 24.1401 23.4941 24.2381 23.2381 24.2381Z" fill="#FFE777"/>
<path d="M36 44V45.666C36 46.946 34.946 48 33.666 48H30.332C29.214 48 28 47.146 28 45.28V44H36Z" fill="#FFD200"/>
<path d="M37.88 24.746C35.694 22.972 32.814 22.28 30 22.88C26.466 23.614 23.6 26.494 22.866 30.026C22.12 33.652 23.48 37.252 26.386 39.452C27.172 40.038 27.72 40.946 27.906 41.998V42.012C27.934 42 27.974 42 28 42H36C36.026 42 36.04 42 36.066 42.014V42C36.252 40.986 36.852 40.054 37.772 39.334C40.026 37.548 41.332 34.88 41.332 32C41.334 29.174 40.08 26.534 37.88 24.746ZM37 32.666C36.454 32.666 36 32.212 36 31.666C36 29.64 34.36 28 32.334 28C31.788 28 31.334 27.546 31.334 27C31.334 26.454 31.788 26 32.334 26C35.454 26 38 28.546 38 31.666C38 32.214 37.546 32.666 37 32.666Z" fill="#FFD200"/>
<path d="M27.906 42H28C27.974 42 27.934 42 27.906 42.014V42Z" fill="#212121"/>
<path d="M36.066 42V42.014C36.04 42 36.026 42 36 42H36.066Z" fill="#212121"/>
</svg>
