<svg width="64" height="64" viewBox="0 0 64 64" fill="none" xmlns="http://www.w3.org/2000/svg">
<path d="M52 64H12C5.372 64 0 58.628 0 52V12C0 5.372 5.372 0 12 0H52C58.628 0 64 5.372 64 12V52C64 58.628 58.628 64 52 64Z" fill="#F5E6FE"/>
<path d="M23.334 39.334C21.1248 39.334 19.334 37.5431 19.334 35.334C19.334 33.1248 21.1248 31.334 23.334 31.334C25.5431 31.334 27.334 33.1248 27.334 35.334C27.334 37.5431 25.5431 39.334 23.334 39.334Z" fill="#BE63F9"/>
<path d="M19.666 41.334H27C29.022 41.334 30.666 42.978 30.666 45V47C30.666 47.552 30.218 48 29.666 48H17C16.448 48 16 47.552 16 47V45C16 42.978 17.644 41.334 19.666 41.334Z" fill="#BE63F9"/>
<path d="M42.666 41.332C41.1936 41.332 40 40.1384 40 38.666C40 37.1936 41.1936 36 42.666 36C44.1384 36 45.332 37.1936 45.332 38.666C45.332 40.1384 44.1384 41.332 42.666 41.332Z" fill="#BE63F9"/>
<path d="M41 42.666H44.334C46.356 42.666 48 44.312 48 46.334V47C48 47.552 47.552 48 47 48H38.334C37.782 48 37.334 47.552 37.334 47V46.334C37.334 44.312 38.978 42.666 41 42.666Z" fill="#BE63F9"/>
<path d="M40.334 13H27.666C25.644 13 24 14.644 24 16.666V26.666C24 28.688 25.644 30.332 27.666 30.332H34.276L38.322 34.068C38.51 34.242 38.754 34.332 39 34.332C39.136 34.332 39.272 34.304 39.402 34.248C39.764 34.09 40 33.73 40 33.334V30.334H40.334C42.356 30.334 44 28.69 44 26.668V16.668C44 14.644 42.356 13 40.334 13ZM34 27.666C33.448 27.666 33 27.218 33 26.666C33 26.114 33.448 25.666 34 25.666C34.552 25.666 35 26.114 35 26.666C35 27.218 34.552 27.666 34 27.666ZM35.968 21.69C35.606 21.954 35 22.526 35 23.36V23.666C35 24.218 34.552 24.666 34 24.666C33.448 24.666 33 24.218 33 23.666V23.36C33 22.106 33.652 20.91 34.786 20.076C35.134 19.82 35.332 19.428 35.332 19C35.332 18.264 34.734 17.666 33.998 17.666C33.262 17.666 32.664 18.264 32.664 19C32.664 19.552 32.216 20 31.664 20C31.112 20 30.664 19.552 30.664 19C30.664 17.162 32.158 15.666 33.998 15.666C35.838 15.666 37.332 17.162 37.332 19C37.334 20.058 36.822 21.064 35.968 21.69Z" fill="#D9A4FC"/>
</svg>
