<svg width="64" height="64" viewBox="0 0 64 64" fill="none" xmlns="http://www.w3.org/2000/svg">
<rect width="64" height="64" rx="25" fill="#EA4C89"/>
<path d="M32 46C39.7192 46 46 39.7192 46 32C46 24.2808 39.7192 18 32 18C24.2808 18 18 24.2808 18 32C18 39.7192 24.2808 46 32 46ZM32 19.75C38.7533 19.75 44.25 25.245 44.25 32C44.25 38.7533 38.7533 44.25 32 44.25C25.245 44.25 19.75 38.7533 19.75 32C19.75 25.245 25.245 19.75 32 19.75Z" fill="white"/>
<path d="M38.6991 23.9167C36.8809 22.4065 34.5464 21.5 32.0001 21.5C31.2651 21.5 30.5476 21.577 29.8546 21.7205C31.1286 23.5265 32.2854 25.406 33.3039 27.3538C35.2306 26.456 37.0436 25.2975 38.6991 23.9167Z" fill="white"/>
<path d="M35.3443 31.8268C37.6683 31.349 40.0868 31.3035 42.4843 31.7025C42.4143 29.2 41.4728 26.918 39.9468 25.1505C38.146 26.6678 36.165 27.926 34.0615 28.9095C34.52 29.8685 34.947 30.8398 35.3443 31.8268Z" fill="white"/>
<path d="M31.6712 28.0152C30.6194 26.0185 29.4277 24.0935 28.0977 22.256C24.9459 23.5195 22.5554 26.2635 21.7784 29.6322C25.1769 29.7775 28.5404 29.2122 31.6712 28.0152Z" fill="white"/>
<path d="M33.638 32.2625C33.2723 31.363 32.8767 30.4775 32.455 29.6008C29.424 30.782 26.1865 31.426 22.8947 31.426C22.4415 31.426 21.9865 31.398 21.5315 31.3735C21.5192 31.5818 21.5 31.7883 21.5 32C21.5 34.5778 22.4327 36.9368 23.9745 38.7638C26.4962 35.633 29.886 33.3895 33.638 32.2625Z" fill="white"/>
<path d="M35.9867 33.4823C36.8214 35.8115 37.4759 38.2037 37.9554 40.6415C40.3214 39.0087 41.9734 36.431 42.3882 33.4525C40.2427 33.0745 38.0744 33.0903 35.9867 33.4823Z" fill="white"/>
<path d="M25.2152 40.008C27.0475 41.5602 29.4117 42.5 32 42.5C33.554 42.5 35.0257 42.1535 36.3522 41.5462C35.871 38.9317 35.171 36.3732 34.268 33.89C30.7382 34.9207 27.5532 37.0382 25.2152 40.008Z" fill="white"/>
</svg>
