<svg width="44" height="44" viewBox="0 0 44 44" fill="none" xmlns="http://www.w3.org/2000/svg">
<rect width="44" height="44" rx="15" fill="#E6E3FC"/>
<path d="M16.3692 31.0787L15.898 28.4665L13.3376 27.9858C13.0344 27.9286 12.9158 27.5487 13.1366 27.3235L16.6723 23.7162C16.9425 23.4405 17.3314 23.3161 17.707 23.3867L19.7896 23.7767C20.1455 23.844 20.4256 24.1297 20.4915 24.4928L20.8737 26.6208C20.9429 27.0041 20.8243 27.4008 20.5508 27.6765L17.0183 31.2837C16.8008 31.5056 16.4252 31.388 16.3692 31.0787Z" fill="#6B5AED"/>
<path d="M17.9641 26.8624C17.8389 26.8624 17.7104 26.812 17.6148 26.7145C17.4204 26.5162 17.4204 26.1968 17.6148 26.0018L31.112 12.2316C31.3064 12.0333 31.6195 12.0333 31.8106 12.2316C32.0017 12.43 32.005 12.7494 31.8106 12.9444L18.3134 26.7145C18.2178 26.8154 18.0926 26.8624 17.9641 26.8624Z" fill="#1C0F7D"/>
<path d="M27.0884 12.0608C27.0884 13.1971 27.9913 14.1216 29.1083 14.1216H29.9618V14.9923C29.9618 16.1287 30.8647 17.0532 31.9818 17.0532C33.0956 17.0532 34.0017 16.132 34.0017 14.9923V10.669C34.0017 10.3059 33.7151 10.0101 33.3592 10.0101L29.1083 10C27.9946 10 27.0884 10.9211 27.0884 12.0608Z" fill="#6B5AED"/>
<path d="M27.7278 34C27.6026 34 27.4741 33.9496 27.3785 33.8521C27.1841 33.6538 27.1841 33.3344 27.3785 33.1394C31.9358 28.49 31.9358 20.9224 27.3785 16.2696C22.818 11.6236 15.4037 11.6202 10.8432 16.273C10.6487 16.4713 10.3357 16.4713 10.1446 16.273C9.95346 16.0746 9.95016 15.7553 10.1446 15.5603C15.0874 10.5175 23.1343 10.5175 28.0771 15.5603C33.02 20.6031 33.02 28.8127 28.0771 33.8555C27.9783 33.953 27.8531 34 27.7278 34Z" fill="#04C4BA"/>
</svg>
