<svg width="44" height="44" viewBox="0 0 44 44" fill="none" xmlns="http://www.w3.org/2000/svg">
<rect width="44" height="44" rx="15" fill="#F19E27"/>
<path opacity="0.98" d="M9.3076 23.0619C9.07474 23.3127 8.75723 23.4204 8.38672 23.4221C8.38659 23.4221 8.38647 23.4221 8.38634 23.4221C8.38622 23.4221 8.38609 23.4221 8.38597 23.4221C7.60695 23.4186 7.06104 22.9472 7.0476 21.6597H7.04754C7.04754 21.6591 7.0476 21.6584 7.0476 21.6579C7.0476 21.6573 7.04754 21.6566 7.04754 21.6561H7.0476C7.06104 20.3686 7.60689 19.8972 8.38597 19.8938C8.38609 19.8938 8.38622 19.8938 8.38634 19.8938C8.38647 19.8938 8.38659 19.8938 8.38672 19.8938C8.78819 19.8955 9.12737 20.0221 9.36405 20.32L10.0865 19.5975C9.66699 19.1803 9.07857 19.0027 8.38685 19.0001C8.38666 19.0001 8.38647 19.0001 8.38622 19.0001C8.38597 19.0001 8.38584 19.0001 8.38565 19.0001C6.99699 19.0054 6.02405 19.7156 6 21.6552H6.00006C6.00006 21.6561 6.00013 21.657 6.00013 21.658C6.00013 21.659 6.00006 21.6598 6.00006 21.6606H6.00013C6.02411 23.6004 6.99711 24.3106 8.38578 24.3157C8.38597 24.3157 8.38609 24.3157 8.38634 24.3157C8.38659 24.3157 8.38678 24.3157 8.38697 24.3157C9.04479 24.3133 9.6089 24.1522 10.0234 23.7776L9.3076 23.0619Z" fill="white"/>
<path opacity="0.98" d="M17.4221 21.6323H17.422V19.0019H16.3747V21.6323H16.3744C16.3744 21.6325 16.3744 21.6329 16.3744 21.6333H16.3745C16.3745 21.6339 16.3744 21.6345 16.3744 21.6351C16.3744 21.6357 16.3745 21.6363 16.3745 21.6369H16.3744C16.361 22.9244 15.8152 23.3958 15.0361 23.3992C15.0359 23.3992 15.0358 23.3992 15.0357 23.3992C15.0356 23.3992 15.0354 23.3992 15.0353 23.3992C14.2563 23.3957 13.7104 22.9243 13.697 21.6369H13.6969C13.6969 21.6363 13.697 21.6357 13.697 21.6351C13.697 21.6345 13.6969 21.6338 13.6969 21.6333H13.697C13.697 21.6329 13.697 21.6325 13.697 21.6323H13.6965V19H12.6493V21.6323C12.6493 21.6331 12.6494 21.6341 12.6494 21.6351C12.6494 21.6361 12.6493 21.6369 12.6493 21.6378H12.6494C12.6734 23.5776 13.6464 24.2877 15.035 24.2928C15.0352 24.2928 15.0353 24.2928 15.0356 24.2928C15.0358 24.2928 15.036 24.2928 15.0362 24.2928C16.4251 24.2877 17.398 23.5775 17.4219 21.6378H17.422C17.422 21.6369 17.4219 21.6361 17.4219 21.6351C17.4219 21.6341 17.4221 21.6333 17.4221 21.6323Z" fill="white"/>
<path opacity="0.98" d="M24.7576 21.6323H24.7574V19.0019H23.7102V21.6323H23.7099C23.7099 21.6325 23.7099 21.6329 23.7099 21.6333H23.7099C23.7099 21.6339 23.7099 21.6345 23.7099 21.6351C23.7099 21.6357 23.7099 21.6363 23.7099 21.6369H23.7099C23.6964 22.9244 23.1506 23.3958 22.3715 23.3992C22.3714 23.3992 22.3713 23.3992 22.3711 23.3992C22.371 23.3992 22.3709 23.3992 22.3708 23.3992C21.5918 23.3957 21.0458 22.9243 21.0324 21.6369H21.0323C21.0323 21.6363 21.0324 21.6357 21.0324 21.6351C21.0324 21.6345 21.0323 21.6338 21.0323 21.6333H21.0324C21.0324 21.6329 21.0324 21.6325 21.0324 21.6323H21.032V19H19.9847V21.6323C19.9847 21.6331 19.9849 21.6341 19.9849 21.6351C19.9849 21.6361 19.9847 21.6369 19.9847 21.6378H19.9849C20.0089 23.5776 20.9819 24.2877 22.3705 24.2928C22.3706 24.2928 22.3708 24.2928 22.371 24.2928C22.3713 24.2928 22.3715 24.2928 22.3716 24.2928C23.7606 24.2877 24.7334 23.5775 24.7574 21.6378H24.7574C24.7574 21.6369 24.7574 21.6361 24.7574 21.6351C24.7574 21.6341 24.7576 21.6333 24.7576 21.6323Z" fill="white"/>
<path opacity="0.98" d="M35.7877 23.422C35.7876 23.422 35.7875 23.422 35.7873 23.422C35.7872 23.422 35.7871 23.422 35.787 23.422C35.1278 23.4191 34.6356 23.0809 34.4917 22.1969H36.7436V22.1967H38.1394C38.1596 22.0295 38.1713 21.8511 38.1736 21.6606H38.1737C38.1737 21.6597 38.1736 21.6589 38.1736 21.6579C38.1736 21.6569 38.1737 21.6561 38.1737 21.6551H38.1736C38.1497 19.7155 37.1768 19.0053 35.7879 19C35.7877 19 35.7875 19 35.7873 19C35.787 19 35.7869 19 35.7867 19C34.3981 19.0053 33.4251 19.7155 33.4011 21.6551H33.401C33.401 21.6559 33.4011 21.6569 33.4011 21.6579C33.4011 21.6589 33.401 21.6597 33.401 21.6606H33.4011C33.4251 23.6004 34.3981 24.3105 35.7867 24.3156C35.7869 24.3156 35.787 24.3156 35.7873 24.3156C35.7875 24.3156 35.7877 24.3156 35.7879 24.3156C36.4676 24.3131 37.0474 24.1411 37.4653 23.7393L36.7448 23.0188C36.5092 23.2996 36.1782 23.4203 35.7877 23.422ZM35.787 19.8936C35.7871 19.8936 35.7872 19.8936 35.7873 19.8936C35.7875 19.8936 35.7876 19.8936 35.7877 19.8936C36.4545 19.8966 36.9502 20.2428 37.0876 21.1497H34.487C34.6245 20.2428 35.1202 19.8966 35.787 19.8936Z" fill="white"/>
<path opacity="0.98" d="M29.7074 19C29.7072 19 29.7071 19 29.7068 19C29.7066 19 29.7064 19 29.7062 19C28.3173 19.0051 27.3444 19.7153 27.3205 21.6551H27.3204C27.3204 21.6559 27.3205 21.6568 27.3205 21.6578C27.3205 21.6588 27.3204 21.6596 27.3204 21.6606H27.3205H27.3206V24.2909H28.3678V21.6606H28.3681C28.3681 21.6603 28.3681 21.66 28.3681 21.6596H28.368C28.368 21.659 28.3681 21.6583 28.3681 21.6578C28.3681 21.6572 28.368 21.6565 28.368 21.6559H28.3681C28.3815 20.3684 28.9274 19.8971 29.7065 19.8937C29.7066 19.8937 29.7067 19.8937 29.7068 19.8937C29.707 19.8937 29.7071 19.8937 29.7072 19.8937C30.0878 19.8953 30.4124 20.0091 30.6467 20.2746L31.3643 19.5571C30.9479 19.1691 30.376 19.0024 29.7074 19Z" fill="white"/>
</svg>
