<svg width="64" height="64" viewBox="0 0 64 64" fill="none" xmlns="http://www.w3.org/2000/svg">
<rect width="64" height="64" rx="25" fill="#EEE0FF"/>
<g clip-path="url(#clip0)">
<path d="M27.6676 46C30.2431 46 32.3333 43.9093 32.3333 41.3333V36.6667H27.6676C25.0921 36.6667 23.0018 38.7573 23.0018 41.3333C23.0018 43.9093 25.0921 46 27.6676 46Z" fill="#0ACF83"/>
<path d="M23.0018 32C23.0018 29.424 25.0921 27.3333 27.6676 27.3333H32.3333V36.6666H27.6676C25.0921 36.6666 23.0018 34.576 23.0018 32Z" fill="#A259FF"/>
<path d="M23.0033 22.6667C23.0033 20.0907 25.0935 18 27.669 18H32.3348V27.3333H27.669C25.0935 27.3333 23.0033 25.2427 23.0033 22.6667Z" fill="#F24E1E"/>
<path d="M32.3334 18H36.9991C39.5746 18 41.6649 20.0907 41.6649 22.6667C41.6649 25.2427 39.5746 27.3333 36.9991 27.3333H32.3334V18Z" fill="#FF7262"/>
<path d="M41.6649 32C41.6649 34.576 39.5746 36.6666 36.9991 36.6666C34.4236 36.6666 32.3334 34.576 32.3334 32C32.3334 29.424 34.4236 27.3333 36.9991 27.3333C39.5746 27.3333 41.6649 29.424 41.6649 32Z" fill="#1ABCFE"/>
</g>
<defs>
<clipPath id="clip0">
<rect width="18.6667" height="28" fill="white" transform="translate(23 18)"/>
</clipPath>
</defs>
</svg>
