<svg width="64" height="64" viewBox="0 0 64 64" fill="none" xmlns="http://www.w3.org/2000/svg">
<path d="M52 64H12C5.372 64 0 58.628 0 52V12C0 5.372 5.372 0 12 0H52C58.628 0 64 5.372 64 12V52C64 58.628 58.628 64 52 64Z" fill="#E3F8FA"/>
<path d="M45.6661 37.334H44.0001V36.334C44.0001 35.046 42.9541 34 41.6661 34H38.3321C37.0461 34 36.0001 35.046 36.0001 36.334V37.334H34.3341C33.6781 37.334 33.0881 37.608 32.6641 38.044L40.0001 41.872L47.3381 38.044C46.9141 37.608 46.3221 37.334 45.6661 37.334ZM38.0001 37.334V36.334C38.0001 36.15 38.1501 36 38.3341 36H41.6681C41.8501 36 42.0001 36.15 42.0001 36.334V37.334H38.0001Z" fill="#8CE1EB"/>
<path d="M40.462 43.886C40.172 44.038 39.826 44.038 39.538 43.886L32 39.954V45.666C32 46.954 33.046 48 34.334 48H45.668C46.954 48 48 46.954 48 45.666V39.954L40.462 43.886Z" fill="#8CE1EB"/>
<path d="M28 29.334C24.324 29.334 21.334 26.344 21.334 22.668C21.334 18.992 24.324 16 28 16C31.676 16 34.666 18.99 34.666 22.666C34.666 26.342 31.676 29.334 28 29.334Z" fill="#26C6DA"/>
<path d="M22.334 32C18.84 32 16 34.84 16 38.334V43C16 43.546 16.454 44 17 44H29.334V39.666C29.334 37.16 31.2 35.092 33.614 34.732C33.96 33.718 34.614 32.866 35.454 32.252C34.12 31.872 34.048 32 22.334 32Z" fill="#26C6DA"/>
</svg>
