<svg width="64" height="64" viewBox="0 0 64 64" fill="none" xmlns="http://www.w3.org/2000/svg">
<rect opacity="0.15" width="64" height="64" rx="25" fill="#0073B1"/>
<path d="M44.9934 45L44.9999 44.9984V35.4629C44.9999 30.7976 43.9956 27.2047 38.5421 27.2047C35.921 27.2047 34.1611 28.6428 33.4429 30.0078H33.3681V27.6402H28.1974V44.9984H33.5826V36.4038C33.5826 34.1402 34.0116 31.9529 36.8148 31.9529C39.5756 31.9529 39.6179 34.5351 39.6179 36.55V45H44.9934Z" fill="#0073B1"/>
<path d="M19.4291 27.6418H24.8192V45H19.4291V27.6418Z" fill="#0073B1"/>
<path d="M22.1216 19C20.3991 19 19 20.3991 19 22.1216C19 23.8457 20.3991 25.2725 22.1216 25.2725C23.8441 25.2725 25.2432 23.8457 25.2432 22.1216C25.2432 20.3991 23.8441 19 22.1216 19Z" fill="#0073B1"/>
</svg>
