<svg width="64" height="64" viewBox="0 0 64 64" fill="none" xmlns="http://www.w3.org/2000/svg">
<rect width="64" height="64" rx="25" fill="#FFE0E0"/>
<path fill-rule="evenodd" clip-rule="evenodd" d="M32.0421 43.4999L32.1168 48.08C31.4332 48.0804 30.7764 47.8144 30.2857 47.3386L29.9281 46.9128L21.2395 36.5808L18.2841 33.0634C18.2764 33.0592 18.2702 33.0527 18.2664 33.0447L18.2197 32.9905L18.2104 32.9784C18.1526 32.9022 18.1063 32.8179 18.0731 32.7281C18.0289 32.6181 18.0046 32.5012 18.0012 32.3827V32.3117C18.0012 32.2893 18.0031 32.2659 18.0078 32.2435C18.0282 32.0135 18.1256 31.797 18.2841 31.6291C18.4737 31.4237 18.7492 31.293 19.0517 31.293H21.9697L32.0412 43.5018L32.043 43.4999H32.0421Z" fill="#FCD1CA"/>
<path fill-rule="evenodd" clip-rule="evenodd" d="M32.0399 38.0074V43.6837L18.2633 27.2441C18.1806 27.1514 18.1154 27.0445 18.071 26.9284C18.0273 26.8173 18.0033 26.6995 18 26.5802V26.5101C18.0071 26.2564 18.1079 26.0142 18.2829 25.8304C18.4715 25.6221 18.747 25.4942 19.0505 25.4942H21.6631L32.0399 38.0065V38.0074Z" fill="#FF9D8D"/>
<path fill-rule="evenodd" clip-rule="evenodd" d="M19.0452 20.001C18.9015 20.0002 18.7594 20.0295 18.6278 20.0871C18.4962 20.1447 18.3782 20.2292 18.2813 20.3352C18.1133 20.5117 18.0087 20.7508 18.0012 21.0113V21.0804C18.004 21.2046 18.0283 21.3203 18.0722 21.4259C18.0731 21.4361 18.0778 21.4445 18.0815 21.4539C18.1271 21.5637 18.1923 21.6643 18.2739 21.7508L18.2888 21.7676L32.0402 38.0075V48.0799C32.7199 48.0813 33.3732 47.8173 33.861 47.3441C33.8638 47.3441 33.8638 47.3441 33.8638 47.3422L45.8159 33.1529C45.8308 33.1379 45.8439 33.1211 45.857 33.1043C45.9205 33.0259 45.9709 32.9372 46.0082 32.8401C46.0549 32.7243 46.0792 32.5973 46.0792 32.4619V21.044C46.0804 20.7793 45.9794 20.5244 45.7972 20.3324C45.6999 20.2268 45.5816 20.1427 45.45 20.0855C45.3183 20.0282 45.1761 19.9991 45.0325 20H19.0461L19.0452 20.001Z" fill="#FF6661"/>
</svg>
